<?xml version="1.0" encoding="UTF-8" standalone="no"?>
<svg
   viewBox="0 0 800 600"
   version="1.1"
   id="svg12"
   sodipodi:docname="barcode.svg"
   inkscape:version="1.1.1 (3bf5ae0d25, 2021-09-20)"
   xmlns:inkscape="http://www.inkscape.org/namespaces/inkscape"
   xmlns:sodipodi="http://sodipodi.sourceforge.net/DTD/sodipodi-0.dtd"
   xmlns="http://www.w3.org/2000/svg"
   xmlns:svg="http://www.w3.org/2000/svg">
  <defs
     id="defs16" />
  <sodipodi:namedview
     id="namedview14"
     pagecolor="#ffffff"
     bordercolor="#666666"
     borderopacity="1.0"
     inkscape:pageshadow="2"
     inkscape:pageopacity="0"
     inkscape:pagecheckerboard="0"
     showgrid="false"
     inkscape:zoom="0.68666667"
     inkscape:cx="447.81553"
     inkscape:cy="453.64078"
     inkscape:window-width="1920"
     inkscape:window-height="1057"
     inkscape:window-x="3592"
     inkscape:window-y="-8"
     inkscape:window-maximized="1"
     inkscape:current-layer="svg12" />
  <path
     d="m 37.180122,583.86245 c -0.640135,-0.65807 -1.163896,-2.30515 -1.163896,-3.66011 0,-3.43212 1.411776,-4.22073 8.51395,-4.75568 10.62536,-0.80039 16.227186,-5.26983 16.027802,-12.78779 -0.168404,-6.3515 -5.720186,-9.69896 -14.666269,-8.84336 -5.811935,0.55599 -6.970112,0.18604 -8.028596,-2.56513 -1.073776,-2.79077 0.509184,-22.25283 1.949399,-23.96757 0.841148,-1.00153 4.077053,-1.29476 14.288153,-1.29476 14.167014,0 15.435607,0.37796 15.435607,4.60065 0,4.02567 -1.477113,4.60065 -11.825241,4.60065 h -9.590308 l -0.01191,2.53024 c -0.0079,1.39166 -0.249032,3.39955 -0.537504,4.46211 -0.479873,1.7664 -0.03972,1.98191 5.157382,2.51854 12.158474,1.25578 18.253996,8.17458 17.580379,19.95447 -0.478324,8.36493 -3.499037,12.72577 -11.516632,16.62624 -6.745705,3.2816 -19.453876,4.80003 -21.611358,2.58205 z m 92.451588,0.34067 c -3.49177,-0.87645 -6.01291,-3.18902 -8.08261,-7.41355 -4.1124,-8.39515 -3.39692,-37.69418 1.09625,-44.88009 2.7954,-4.46956 5.66776,-5.46332 15.79307,-5.46332 10.12531,0 13.02195,1.00098 15.75931,5.46293 5.42747,8.84649 5.14269,39.42069 -0.44568,47.84723 -2.20232,3.3214 -7.82524,5.1305 -15.56508,5.00765 -3.70247,-0.0589 -7.55238,-0.3128 -8.55526,-0.56442 z m 15.26244,-10.14011 c 4.79237,-3.8456 4.77648,-33.37572 -0.0199,-37.26362 -2.82979,-2.29389 -11.17704,-2.21771 -13.31943,0.12167 -2.42173,2.64437 -3.82127,17.19454 -2.62743,27.31621 0.77895,6.60387 1.35208,8.46776 3.01209,9.79591 2.74305,2.1949 10.23573,2.21237 12.95522,0.0314 z m 41.8588,8.77781 c -0.81192,-1.49915 -0.93048,-7.57329 -0.45128,-23.12139 l 0.64995,-21.08834 -4.36819,3.79952 c -6.20276,5.39542 -11.55476,5.01433 -11.55476,-0.8224 0,-1.89164 1.69743,-3.84195 7.84788,-9.01684 6.85413,-5.7671 8.31337,-6.60308 11.52497,-6.60308 2.02244,0 4.16563,0.58146 4.76219,1.29216 0.78646,0.93638 1.01011,8.7994 0.81235,28.55724 -0.29669,29.64676 -0.17079,28.9921 -5.59388,29.02232 -1.66434,0.008 -2.90398,-0.68048 -3.62903,-2.01923 z m 35.67312,0.9292 c -1.38755,-1.37113 -1.44812,-10.10322 -0.10327,-14.88912 1.26847,-4.51431 7.93804,-11.62212 14.73339,-15.70116 6.9582,-4.17678 9.70311,-7.19613 9.70311,-10.6735 0,-6.3621 -7.63182,-9.00584 -15.87886,-5.49982 -7.29739,3.10204 -11.54165,1.47926 -10.17774,-3.89132 1.26518,-4.98136 16.26293,-8.84415 24.23871,-6.24318 10.26313,3.34711 14.59835,13.8828 9.76864,23.74151 -1.49868,3.05918 -3.69711,5.20271 -9.02711,8.80136 -9.64909,6.51517 -13.08748,9.75391 -14.0844,13.26818 l -0.8485,2.99034 h 11.85344 c 12.73916,0 14.08798,0.44041 14.08798,4.60065 0,4.30629 -1.13057,4.60065 -17.69119,4.60065 -10.78026,0 -15.79466,-0.334 -16.57393,-1.10408 z m 54.28259,0.24962 c -5.08391,-1.21237 -6.98322,-2.71004 -6.98322,-5.50571 0,-4.35378 1.94292,-5.18545 8.91431,-3.81613 8.05083,1.58131 13.88859,0.66628 17.30831,-2.71282 6.4641,-6.38761 0.64974,-15.63365 -9.8318,-15.63365 -1.77226,0 -3.88073,-0.65066 -4.68553,-1.4459 -2.72052,-2.68829 -1.68166,-5.44527 4.69943,-12.47105 l 6.16265,-6.7852 -10.27902,-0.46002 c -5.65346,-0.25315 -10.5916,-0.7706 -10.97329,-1.15012 -1.2004,-1.1935 -0.75389,-6.33502 0.625,-7.1977 0.72553,-0.45378 8.28597,-0.83139 16.80111,-0.83912 17.15818,-0.0157 17.68246,0.15542 17.8453,5.82872 0.0747,2.60218 -0.88468,4.21367 -5.63122,9.45799 l -5.72098,6.32128 3.07191,1.56121 c 4.35548,2.2135 8.68236,7.42258 9.91123,11.93256 2.73657,10.04278 -3.27471,19.91915 -13.89892,22.83528 -3.79719,1.04227 -13.12044,1.08548 -17.33531,0.0805 z m 66.63886,-0.008 c -0.8284,-0.51804 -1.48673,-2.94761 -1.74136,-6.42647 l -0.40945,-5.59363 h -9.4787 c -6.13087,0 -9.8731,-0.39012 -10.59597,-1.10412 -2.71524,-2.68311 -1.08756,-8.34099 7.62268,-26.4975 8.82057,-18.38612 9.43699,-19.17461 14.0836,-18.02229 4.26055,1.05667 3.7754,3.55814 -3.8196,19.68876 -3.97617,8.4446 -7.38953,15.66466 -7.58494,16.04419 -0.19542,0.37953 1.9735,0.69006 4.82017,0.69006 H 341.42 V 558.855 c 0,-5.07242 2.06315,-8.02543 5.60659,-8.02543 3.36416,0 4.63549,2.12837 4.63549,7.76011 0,3.9876 0.13226,4.20111 2.60709,4.20111 3.25481,0 4.84163,1.5079 4.84163,4.60065 0,3.09274 -1.58698,4.60065 -4.84163,4.60065 -2.51228,0 -2.60709,0.16955 -2.60709,4.66109 0,2.56352 -0.43376,5.46175 -0.96387,6.4406 -1.02524,1.89301 -4.99931,2.38961 -7.35141,0.91863 z m 29.96365,-0.15072 c -0.64017,-0.65807 -1.16389,-2.30515 -1.16389,-3.66011 0,-3.43212 1.41177,-4.22073 8.51395,-4.75568 10.62536,-0.80038 16.22718,-5.26983 16.0278,-12.78778 -0.16841,-6.3515 -5.72019,-9.69897 -14.66627,-8.84336 -5.81193,0.55599 -6.97011,0.18604 -8.0286,-2.56513 -1.07373,-2.79077 0.50919,-22.25283 1.9494,-23.96758 0.84119,-1.00153 4.07706,-1.29475 14.28816,-1.29475 14.16701,0 15.4356,0.37796 15.4356,4.60065 0,4.02567 -1.47715,4.60065 -11.82524,4.60065 h -9.59031 l -0.0119,2.53024 c -0.008,1.39166 -0.24903,3.39955 -0.53751,4.46211 -0.47987,1.76639 -0.0397,1.9819 5.15699,2.51854 12.15847,1.25578 18.254,8.17457 17.58038,19.95447 -0.47833,8.36492 -3.49904,12.72577 -11.51663,16.62624 -6.74571,3.2816 -19.45388,4.80003 -21.61136,2.58204 z m 93.34525,-0.7273 c -9.47155,-4.31964 -13.06008,-14.94211 -9.28806,-27.49401 2.90319,-9.6605 18.82276,-29.65265 23.61196,-29.65265 1.391,0 3.03179,0.49684 3.64635,1.10409 2.38848,2.36018 1.11293,5.48687 -5.11528,12.54013 l -6.23255,7.05796 5.06881,0.54575 c 10.62615,1.14412 15.97815,6.48612 16.55208,16.52066 0.19581,3.42548 -0.11439,7.63727 -0.68975,9.35986 -1.30124,3.89623 -6.96653,9.33357 -11.16512,10.71588 -4.69666,1.54629 -12.16602,1.22862 -16.38844,-0.69696 z m 15.90626,-10.29397 c 5.07517,-4.71133 3.45229,-13.50798 -2.8726,-15.57046 -7.48804,-2.44205 -13.96485,1.60171 -13.96485,8.71894 0,4.15872 1.99007,7.31504 5.58673,8.86063 2.98425,1.28243 8.82931,0.23863 11.25052,-2.00926 z m 33.78969,10.5012 c -1.72721,-2.07037 -1.35684,-14.53903 0.63418,-21.34581 1.83271,-6.26555 6.11975,-13.40869 12.50005,-20.82695 l 4.74789,-5.52063 -12.77649,-0.25707 c -7.48088,-0.15071 -13.28487,-0.67393 -14.00258,-1.2628 -1.5326,-1.25684 -1.59924,-5.56419 -0.10883,-7.03717 0.78956,-0.78029 6.24129,-1.10409 18.58962,-1.10409 16.32131,0 17.53549,0.11736 18.4359,1.7797 2.68831,4.9637 0.5825,10.8666 -7.09085,19.87558 -3.03255,3.56046 -6.40135,7.90808 -7.48645,9.6609 -2.88182,4.65638 -4.9433,12.41218 -4.9433,18.59649 0,2.9777 -0.4338,6.21492 -0.96392,7.19376 -1.20588,2.2265 -5.75911,2.37635 -7.5349,0.24805 z m 51.00983,0.18957 c -7.0559,-2.48605 -10.85215,-7.80682 -10.85215,-15.21057 0,-5.574 2.55554,-11.06126 6.48992,-13.93578 l 2.75059,-2.0095 -2.77426,-2.804 c -3.58578,-3.62419 -4.98818,-8.63652 -3.71939,-13.2929 1.70803,-6.26791 8.27802,-10.29122 16.80627,-10.29122 15.01738,0 22.26353,12.54405 13.31626,23.05192 l -2.44119,2.86679 2.4114,1.99227 c 6.44742,5.32674 8.34753,15.56537 4.23155,22.8023 -4.01469,7.05876 -16.4079,10.28769 -26.21904,6.83112 z m 16.79356,-11.01221 c 1.18241,-1.35833 2.14827,-3.37819 2.14633,-4.4884 -0.008,-3.16248 -3.08776,-7.37313 -6.86923,-9.38341 l -3.45416,-1.83645 -3.42004,1.95828 c -4.21844,2.41544 -7.07179,7.44691 -6.19044,10.91604 1.56572,6.16469 13.26581,8.02897 17.7877,2.83398 z m -3.50825,-28.67145 c 4.78443,-3.97817 3.33945,-7.53012 -3.38373,-8.31782 -7.55159,-0.88477 -10.98759,3.99152 -5.83299,8.2774 3.65517,3.03929 5.59984,3.0478 9.21696,0.0404 z m 36.57115,39.92307 c -2.2762,-2.24922 -1.05047,-5.32595 4.94886,-12.42238 l 6.06613,-7.17572 -5.30315,-0.67773 c -10.38705,-1.32745 -16.16006,-8.02582 -16.11995,-18.70481 0.0457,-12.15118 7.65883,-19.75117 19.73588,-19.70132 12.21845,0.0502 19.37484,7.7817 19.32837,20.88229 -0.0358,10.12245 -5.49102,20.5008 -17.7329,33.7368 -4.90438,5.30279 -8.3658,6.59013 -10.92324,4.06256 z m 16.48297,-32.43141 c 3.36066,-3.32097 3.44939,-10.31633 0.17476,-13.76113 -4.90041,-5.15444 -13.77222,-3.63319 -16.50522,2.83017 -2.33307,5.51788 -0.0409,11.41332 5.24794,13.50014 2.9267,1.15448 8.65932,-0.17426 11.08252,-2.56918 z m 34.11498,32.86432 c -3.49177,-0.87645 -6.01291,-3.18902 -8.08261,-7.41356 -4.1128,-8.39515 -3.39689,-37.69417 1.09629,-44.88009 2.79539,-4.46956 5.66776,-5.46332 15.79307,-5.46332 10.12531,0 13.02194,1.00098 15.75931,5.46293 5.42707,8.8465 5.14268,39.42069 -0.44572,47.84724 -2.20236,3.3214 -7.82524,5.1305 -15.56508,5.00765 -3.7024,-0.0589 -7.55238,-0.31281 -8.55526,-0.56443 z m 15.26243,-10.14012 c 4.79238,-3.8456 4.77649,-33.37571 -0.0199,-37.26362 -2.82982,-2.29389 -11.17743,-2.21771 -13.31943,0.12167 -2.4218,2.64437 -3.82138,17.19455 -2.6275,27.31622 0.77895,6.60386 1.35216,8.46775 3.01205,9.7959 2.74317,2.19491 10.23573,2.21237 12.95522,0.0314 z m 35.01738,10.14012 c -3.49173,-0.87645 -6.01291,-3.18902 -8.08261,-7.41356 -4.1128,-8.39515 -3.39689,-37.69417 1.09629,-44.88009 2.79539,-4.46956 5.66776,-5.46332 15.79307,-5.46332 12.70301,0 15.80498,2.03199 18.25836,11.96122 0.90359,3.65693 1.15294,-49.79786 1.21585,-260.61849 l 0.079,-265.218363 h 8.3801 V 545.32264 h -8.3801 v 10.84775 c 0,11.16213 -1.48958,19.45406 -4.2399,23.60179 -2.20236,3.3214 -7.82524,5.1305 -15.56508,5.00765 -3.70236,-0.0589 -7.55238,-0.31281 -8.55526,-0.56442 z m 15.26243,-10.14012 c 4.79238,-3.8456 4.77649,-33.37571 -0.0198,-37.26362 -2.82983,-2.29389 -11.17744,-2.21771 -13.31944,0.12167 -2.4218,2.64437 -3.82134,17.19455 -2.6275,27.31622 0.77895,6.60386 1.35216,8.46775 3.01205,9.7959 2.74317,2.19491 10.23573,2.21237 12.95522,0.0314 z M 87.22643,278.94136 V 12.573034 h 8.380101 V 545.32539 H 87.22643 V 278.95706 Z m 13.96684,0 V 12.573034 h 8.3801 V 545.32539 h -8.3801 V 278.95706 Z m 315.64688,0 V 12.573034 h 8.38011 V 545.32539 h -8.38011 V 278.95706 Z m 13.96684,0 V 12.573034 h 8.3801 V 545.32539 h -8.3801 V 278.95706 Z m 329.61571,0 V 12.573034 h 6.51772 V 545.32539 H 760.4227 V 278.95706 Z M 130.05832,260.99953 V 12.575389 h 15.82882 V 509.41582 H 130.05832 V 260.99168 Z m 21.41555,0 V 12.575389 h 8.3801 V 509.41582 h -8.3801 V 260.99168 Z m 13.96683,0 V 12.575389 h 15.82882 V 509.41582 H 165.4407 V 260.99168 Z m 28.86466,0 V 12.575389 h 15.82882 V 509.41582 H 194.30536 V 260.99168 Z m 28.86466,0 V 12.575389 h 15.82882 V 509.41582 H 223.17002 V 260.99168 Z m 21.41555,0 V 12.575389 h 15.82882 V 509.41582 H 244.58557 V 260.99168 Z m 21.41555,0 V 12.575389 h 30.72664 V 509.41582 H 266.00112 V 260.99168 Z m 36.31337,0 V 12.575389 h 8.3801 V 509.41582 h -8.3801 V 260.99168 Z m 13.96684,0 V 12.575389 h 8.3801 V 509.41582 h -8.3801 V 260.99168 Z m 28.86466,0 V 12.575389 H 360.9748 V 509.41582 H 345.14599 V 260.99168 Z m 21.41555,0 V 12.575389 h 23.27792 V 509.41582 H 366.56154 V 260.99168 Z m 36.31337,0 V 12.575389 h 8.3801 V 509.41582 h -8.3801 V 260.99168 Z m 41.89852,0 V 12.575389 h 8.3801 V 509.41582 h -8.3801 V 260.99168 Z m 13.96683,0 V 12.575389 h 8.3801 V 509.41582 h -8.3801 V 260.99168 Z m 36.31337,0 V 12.575389 h 8.38011 V 509.41582 h -8.38011 V 260.99168 Z m 28.86466,0 V 12.575389 h 8.3801 V 509.41582 h -8.3801 V 260.99168 Z m 21.41555,0 V 12.575389 h 8.3801 V 509.41582 h -8.3801 V 260.99168 Z m 21.41555,0 V 12.575389 h 8.3801 V 509.41582 h -8.3801 V 260.99168 Z m 28.86466,0 V 12.575389 h 23.27793 V 509.41582 H 595.61405 V 260.99168 Z m 28.86466,0 V 12.575389 h 8.3801 V 509.41582 h -8.3801 V 260.99168 Z m 21.41555,0 V 12.575389 h 23.27792 V 509.41582 H 645.89426 V 260.99168 Z m 36.31337,0 V 12.575389 h 8.3801 V 509.41582 h -8.3801 V 260.99168 Z m 13.96684,0 V 12.575389 h 23.27792 V 509.41582 H 696.17447 V 260.99168 Z m 36.31337,0 V 12.575389 h 8.3801 V 509.41582 h -8.3801 V 260.99168 Z"
     id="path8"
     style="stroke-width:3.94823" />
</svg>
